<svg viewBox="0 0 300 300" xmlns="http://www.w3.org/2000/svg">
    <!-- Ground/nature element -->
    <ellipse cx="150" cy="260" rx="120" ry="20" fill="#A8B5A0" opacity="0.3" />
    <!-- Tree in background -->
    <path d="M230 260V180" stroke="#8B7355" stroke-width="8" stroke-linecap="round" />
    <circle cx="230" cy="160" r="35" fill="#7B8F71" opacity="0.6" />
    <!-- Parent figure -->
    <ellipse cx="130" cy="250" rx="35" ry="8" fill="#D4C4B0" opacity="0.5" />
    <path d="M110 250C110 250 105 200 120 180C135 160 145 165 150 175C155 185 160 250 160 250" fill="#B8A082" />
    <circle cx="130" cy="155" r="22" fill="#E8DDD0" />
    <path d="M120 150C120 150 125 145 130 145C135 145 140 150 140 150" stroke="#7B6B5A" stroke-width="2" stroke-linecap="round" fill="none" />
    <circle cx="125" cy="152" r="2" fill="#7B6B5A" />
    <circle cx="135" cy="152" r="2" fill="#7B6B5A" />
    <!-- Child figure -->
    <path d="M155 250C155 250 152 215 160 200C168 185 175 188 178 195C181 202 185 250 185 250" fill="#C4B8A8" />
    <circle cx="168" cy="180" r="16" fill="#E8DDD0" />
    <path d="M162 177C162 177 165 175 168 175C171 175 174 177 174 177" stroke="#7B6B5A" stroke-width="1.5" stroke-linecap="round" fill="none" />
    <circle cx="164" cy="178" r="1.5" fill="#7B6B5A" />
    <circle cx="172" cy="178" r="1.5" fill="#7B6B5A" />
    <!-- Book they're sharing -->
    <rect x="135" y="195" width="30" height="22" rx="2" fill="#E8DDD0" transform="rotate(-10 150 206)" />
    <line x1="150" y1="193" x2="150" y2="215" stroke="#D4C4B0" stroke-width="1" />
    <!-- Floating elements -->
    <circle cx="80" cy="120" r="4" fill="#A8B5A0" opacity="0.6" />
    <circle cx="220" cy="100" r="3" fill="#A8B5A0" opacity="0.5" />
    <circle cx="100" cy="80" r="2.5" fill="#A8B5A0" opacity="0.4" />
</svg>
